HIERARCHY
ROOT Hips
{
    OFFSET   0.000000   0.000000   0.000000
    CHANNELS 6 Xposition Yposition Zposition Zrotation Xrotation Yrotation
    JOINT Chest
    {
        OFFSET   0.000000   8.007240   0.000000
        CHANNELS 3 Zrotation Xrotation Yrotation
        JOINT Chest2
        {
            OFFSET   0.000000  22.077100   0.000000
            CHANNELS 3 Zrotation Xrotation Yrotation
            JOINT Neck
            {
                OFFSET   0.000000  23.254800   0.000000
                CHANNELS 3 Zrotation Xrotation Yrotation
                JOINT Head
                {
                    OFFSET   0.000000  14.370000   1.956600
                    CHANNELS 3 Zrotation Xrotation Yrotation
                    End Site
                    {
                        OFFSET   0.000000  19.566000   0.000000
                    }
                }
            }
            JOINT LeftCollar
            {
                OFFSET   3.911900  19.017000  -0.467064
                CHANNELS 3 Zrotation Xrotation Yrotation
                JOINT LeftShoulder
                {
                    OFFSET  10.383700   0.000000   0.000000
                    CHANNELS 3 Zrotation Xrotation Yrotation
                    JOINT LeftElbow
                    {
                        OFFSET  26.662100   0.001476   0.000517
                        CHANNELS 3 Zrotation Xrotation Yrotation
                        JOINT LeftWrist
                        {
                            OFFSET  28.869000  -0.000025  -0.000106
                            CHANNELS 3 Zrotation Xrotation Yrotation
                            JOINT LeftFinger0
                            {
                                OFFSET   2.044660  -2.323460   3.252850
                                CHANNELS 3 Zrotation Xrotation Yrotation
                                JOINT LeftFinger01
                                {
                                    OFFSET   3.088130   0.000000   0.000000
                                    CHANNELS 3 Zrotation Xrotation Yrotation
                                    JOINT LeftFinger02
                                    {
                                        OFFSET   2.639460   0.000000   0.000000
                                        CHANNELS 3 Zrotation Xrotation Yrotation
                                        End Site
                                        {
                                            OFFSET   2.582190   0.000000   0.000000
                                        }
                                    }
                                }
                            }
                            JOINT LeftFinger1
                            {
                                OFFSET   8.364480   0.000000   3.252850
                                CHANNELS 3 Zrotation Xrotation Yrotation
                                JOINT LeftFinger11
                                {
                                    OFFSET   4.646930   0.000000   0.000000
                                    CHANNELS 3 Zrotation Xrotation Yrotation
                                    JOINT LeftFinger12
                                    {
                                        OFFSET   2.323460   0.000000   0.000000
                                        CHANNELS 3 Zrotation Xrotation Yrotation
                                        End Site
                                        {
                                            OFFSET   2.273050   0.000000   0.000000
                                        }
                                    }
                                }
                            }
                            JOINT LeftFinger2
                            {
                                OFFSET   8.364490   0.000015   1.078090
                                CHANNELS 3 Zrotation Xrotation Yrotation
                                JOINT LeftFinger21
                                {
                                    OFFSET   5.111620   0.000000   0.000000
                                    CHANNELS 3 Zrotation Xrotation Yrotation
                                    JOINT LeftFinger22
                                    {
                                        OFFSET   2.788160   0.000016   0.000000
                                        CHANNELS 3 Zrotation Xrotation Yrotation
                                        End Site
                                        {
                                            OFFSET   2.727660   0.000000   0.000000
                                        }
                                    }
                                }
                            }
                            JOINT LeftFinger3
                            {
                                OFFSET   7.899780   0.000017  -1.078090
                                CHANNELS 3 Zrotation Xrotation Yrotation
                                JOINT LeftFinger31
                                {
                                    OFFSET   4.646930   0.000000   0.000000
                                    CHANNELS 3 Zrotation Xrotation Yrotation
                                    JOINT LeftFinger32
                                    {
                                        OFFSET   2.323470   0.000000   0.000000
                                        CHANNELS 3 Zrotation Xrotation Yrotation
                                        End Site
                                        {
                                            OFFSET   2.273050   0.000000   0.000000
                                        }
                                    }
                                }
                            }
                            JOINT LeftFinger4
                            {
                                OFFSET   7.435090   0.000000  -3.252850
                                CHANNELS 3 Zrotation Xrotation Yrotation
                                JOINT LeftFinger41
                                {
                                    OFFSET   3.717550   0.000000   0.000000
                                    CHANNELS 3 Zrotation Xrotation Yrotation
                                    JOINT LeftFinger42
                                    {
                                        OFFSET   1.858770   0.000000   0.000000
                                        CHANNELS 3 Zrotation Xrotation Yrotation
                                        End Site
                                        {
                                            OFFSET   1.818440   0.000000   0.000000
                                        }
                                    }
                                }
                            }
                        }
                    }
                }
            }
            JOINT RightCollar
            {
                OFFSET  -3.911900  19.017000  -0.467063
                CHANNELS 3 Zrotation Xrotation Yrotation
                JOINT RightShoulder
                {
                    OFFSET -10.383700   0.000019   0.000000
                    CHANNELS 3 Zrotation Xrotation Yrotation
                    JOINT RightElbow
                    {
                        OFFSET -26.662100   0.001175   0.000102
                        CHANNELS 3 Zrotation Xrotation Yrotation
                        JOINT RightWrist
                        {
                            OFFSET -28.869000   0.000016  -0.000079
                            CHANNELS 3 Zrotation Xrotation Yrotation
                            JOINT RightFinger0
                            {
                                OFFSET  -2.044660  -2.323490   3.252850
                                CHANNELS 3 Zrotation Xrotation Yrotation
                                JOINT RightFinger01
                                {
                                    OFFSET  -3.088140   0.000000   0.000000
                                    CHANNELS 3 Zrotation Xrotation Yrotation
                                    JOINT RightFinger02
                                    {
                                        OFFSET  -2.639460   0.000000   0.000000
                                        CHANNELS 3 Zrotation Xrotation Yrotation
                                        End Site
                                        {
                                            OFFSET  -2.582190   0.000000   0.000000
                                        }
                                    }
                                }
                            }
                            JOINT RightFinger1
                            {
                                OFFSET  -8.364480   0.000000   3.252850
                                CHANNELS 3 Zrotation Xrotation Yrotation
                                JOINT RightFinger11
                                {
                                    OFFSET  -4.646930   0.000000   0.000000
                                    CHANNELS 3 Zrotation Xrotation Yrotation
                                    JOINT RightFinger12
                                    {
                                        OFFSET  -2.323470   0.000000   0.000000
                                        CHANNELS 3 Zrotation Xrotation Yrotation
                                        End Site
                                        {
                                            OFFSET  -2.273050   0.000000   0.000000
                                        }
                                    }
                                }
                            }
                            JOINT RightFinger2
                            {
                                OFFSET  -8.364480   0.000000   1.078090
                                CHANNELS 3 Zrotation Xrotation Yrotation
                                JOINT RightFinger21
                                {
                                    OFFSET  -5.111620   0.000000   0.000000
                                    CHANNELS 3 Zrotation Xrotation Yrotation
                                    JOINT RightFinger22
                                    {
                                        OFFSET  -2.788160   0.000000   0.000000
                                        CHANNELS 3 Zrotation Xrotation Yrotation
                                        End Site
                                        {
                                            OFFSET  -2.727660   0.000000   0.000000
                                        }
                                    }
                                }
                            }
                            JOINT RightFinger3
                            {
                                OFFSET  -7.899780   0.000000  -1.078090
                                CHANNELS 3 Zrotation Xrotation Yrotation
                                JOINT RightFinger31
                                {
                                    OFFSET  -4.646930   0.000000   0.000000
                                    CHANNELS 3 Zrotation Xrotation Yrotation
                                    JOINT RightFinger32
                                    {
                                        OFFSET  -2.323470   0.000000   0.000000
                                        CHANNELS 3 Zrotation Xrotation Yrotation
                                        End Site
                                        {
                                            OFFSET  -2.273050   0.000000   0.000000
                                        }
                                    }
                                }
                            }
                            JOINT RightFinger4
                            {
                                OFFSET  -7.435090   0.000000  -3.252850
                                CHANNELS 3 Zrotation Xrotation Yrotation
                                JOINT RightFinger41
                                {
                                    OFFSET  -3.717550   0.000000   0.000000
                                    CHANNELS 3 Zrotation Xrotation Yrotation
                                    JOINT RightFinger42
                                    {
                                        OFFSET  -1.858770   0.000000   0.000000
                                        CHANNELS 3 Zrotation Xrotation Yrotation
                                        End Site
                                        {
                                            OFFSET  -1.818440   0.000000   0.000000
                                        }
                                    }
                                }
                            }
                        }
                    }
                }
            }
        }
    }
    JOINT LeftHip
    {
        OFFSET   9.783040   0.000000   0.000000
        CHANNELS 3 Zrotation Xrotation Yrotation
        JOINT LeftKnee
        {
            OFFSET   0.000032 -41.789100  -0.002222
            CHANNELS 3 Zrotation Xrotation Yrotation
            JOINT LeftAnkle
            {
                OFFSET   0.000087 -41.133200  -0.000135
                CHANNELS 3 Zrotation Xrotation Yrotation
                JOINT LeftToe
                {
                    OFFSET   0.000000  -6.358960  14.674500
                    CHANNELS 3 Zrotation Xrotation Yrotation
                    End Site
                    {
                        OFFSET   0.000000   0.000000   3.913200
                    }
                }
            }
        }
    }
    JOINT RightHip
    {
        OFFSET  -9.783040   0.000000   0.000000
        CHANNELS 3 Zrotation Xrotation Yrotation
        JOINT RightKnee
        {
            OFFSET   0.000047 -41.789100  -0.000896
            CHANNELS 3 Zrotation Xrotation Yrotation
            JOINT RightAnkle
            {
                OFFSET  -0.000117 -41.133300  -0.000248
                CHANNELS 3 Zrotation Xrotation Yrotation
                JOINT RightToe
                {
                    OFFSET   0.000000  -6.358970  14.674500
                    CHANNELS 3 Zrotation Xrotation Yrotation
                    End Site
                    {
                        OFFSET   0.000000   0.000000   3.913200
                    }
                }
            }
        }
    }
}
MOTION
Frames: 6
Frame Time:   0.016667
  0.430903  89.463200  -1.776260  -1.708650  -4.118090  -0.992808   1.204030   3.822490  -0.296653   2.436090   7.637850  -0.676213  -0.878425   0.256653  -0.001391  -1.443110   0.520422   2.014000  -6.229780   0.841215  10.496500 -79.522700   1.902010  -2.979490  -0.782692   1.106880 -14.365200  10.093200  -4.571350   0.461350  39.972500  35.791400 -50.018700 -34.668200   0.002683   0.002025 -12.546200   0.008617   0.002826 -35.475400  -1.781910   2.489140 -29.056900  -0.004417   0.003806 -20.332300  -0.003436   0.003652 -31.983300  -3.700470   5.898610 -48.261400   0.005969  -0.011855 -32.142000   0.004125   0.000361 -28.428700  -4.641840   8.504620 -40.808700   0.001355  -0.012239 -27.178600   0.001559  -0.000621 -35.141500  -6.917270   9.709280 -53.594500  -0.001520  -0.007459 -35.693900  -0.002339   0.001273   7.523640   4.077330   8.656350  70.366500  -7.525950   0.501085   2.060220  -5.096810  18.007500 -17.425800  -2.267510   3.597430 -41.885900  37.004400  73.028600  28.776500   0.003157  -0.001666   9.388230   0.001363  -0.005411  33.439500  -0.248773  -0.376739  27.360200   0.004960  -0.001902  19.152200   0.004034  -0.005751  28.457800  -3.622350  -6.648810  38.460200   0.003034  -0.002003  25.614600   0.003905  -0.003219  28.560800  -3.750970  -6.853170  41.593400   0.006068  -0.003529  27.701200   0.003864  -0.006839  38.247500  -4.852270  -6.124870  57.760900   0.005912  -0.003338  38.468800   0.005851  -0.010765   3.120080   5.241870   0.084843  -0.349476   0.009714   9.686240  -1.746050  -1.793460   1.698170  -0.000000   0.000000  -0.000000  -0.633910   1.962250  -3.823380  -2.037690   7.243380 -13.687300   3.892610  -3.767800   4.495810  -0.000000   0.000000   0.000000
  0.421342  89.463100  -1.759500  -1.710770  -4.141510  -0.998933   1.211800   3.841130  -0.300948   2.452140   7.674970  -0.685778  -0.863133   0.267746  -0.001390  -1.418050   0.542925   1.999320  -6.239140   0.822372  10.506800 -79.518600   1.957320  -3.007060  -0.805368   1.082130 -14.382700  10.071900  -4.588160   0.395397  39.991600  35.815500 -50.000400 -34.654600   0.002684   0.002027 -12.538000   0.008617   0.002826 -35.475300  -1.781790   2.489120 -29.056800  -0.004414   0.003802 -20.333700  -0.003435   0.003652 -31.985700  -3.700480   5.896960 -48.265000   0.005972  -0.011857 -32.144400   0.004126   0.000358 -28.430100  -4.637410   8.496510 -40.797200   0.001356  -0.012243 -27.171000   0.001561  -0.000627 -35.126000  -6.920860   9.719690 -53.572700  -0.001522  -0.007458 -35.679400  -0.002343   0.001276   7.514840   4.056260   8.680700  70.366300  -7.517250   0.500255   2.046740  -5.146060  18.025600 -17.439600  -2.213810   3.657500 -41.892800  37.005400  73.030900  28.766200   0.003158  -0.001647   9.383090   0.001367  -0.005410  33.411400  -0.238617  -0.361820  27.337200   0.004958  -0.001894  19.136100   0.004035  -0.005743  28.454200  -3.611670  -6.630390  38.377400   0.003019  -0.001995  25.559400   0.003898  -0.003205  28.561300  -3.733630  -6.821690  41.510700   0.006057  -0.003515  27.646100   0.003865  -0.006828  38.210600  -4.825860  -6.099910  57.701900   0.005911  -0.003325  38.429500   0.005852  -0.010766   3.126460   5.272120   0.084627  -0.348852   0.017861   9.688950  -1.751350  -1.807190   1.698180  -0.000000   0.000000   0.000000  -0.616668   2.028220  -3.823560  -2.035950   7.209690 -13.688300   3.861360  -3.762170   4.496190  -0.000000   0.000000   0.000000
  0.405301  89.463100  -1.731700  -1.714880  -4.185510  -1.012640   1.224110   3.873500  -0.306854   2.477560   7.739470  -0.699202  -0.832424   0.282970  -0.001383  -1.367690   0.573757   1.984650  -6.254360   0.788899  10.521900 -79.511700   2.052490  -3.054830  -0.841257   1.038480 -14.413700  10.039100  -4.617470   0.291820  40.016600  35.843700 -49.985600 -34.639400   0.002690   0.002029 -12.527400   0.008617   0.002824 -35.475100  -1.781580   2.489100 -29.056700  -0.004407   0.003793 -20.339700  -0.003428   0.003647 -31.994100  -3.700500   5.893430 -48.277300   0.005982  -0.011858 -32.152600   0.004128   0.000348 -28.431400  -4.632970   8.488390 -40.785800   0.001357  -0.012251 -27.163300   0.001565  -0.000642 -35.103300  -6.929430   9.739470 -53.541600  -0.001527  -0.007456 -35.658700  -0.002351   0.001283   7.505040   4.015680   8.723320  70.365600  -7.508550   0.495226   2.050920  -5.239940  18.075400 -17.475400  -2.089500   3.770480 -41.923300  37.012100  73.047500  28.743200   0.003164  -0.001629   9.371610   0.001375  -0.005405  33.364600  -0.217900  -0.331110  27.298800   0.004955  -0.001871  19.109200   0.004036  -0.005725  28.448300  -3.589740  -6.592150  38.235600   0.002982  -0.001977  25.464900   0.003883  -0.003172  28.562200  -3.702230  -6.764660  41.372300   0.006031  -0.003480  27.553900   0.003866  -0.006798  38.152400  -4.778990  -6.053920  57.607900   0.005910  -0.003292  38.366900   0.005853  -0.010772   3.136840   5.327810   0.084414  -0.347433   0.031316   9.697740  -1.759730  -1.830060   1.698130  -0.000000   0.000000  -0.000000  -0.590000   2.131460  -3.823840  -2.036370   7.167240 -13.689000   3.811850  -3.753710   4.499030   0.000000   0.000000   0.000000
  0.392377  89.463600  -1.709700  -1.719310  -4.230960  -1.029990   1.232790   3.902040  -0.309001   2.495380   7.796420  -0.705038  -0.798613   0.288402  -0.001366  -1.312220   0.584576   1.986540  -6.266860   0.756632  10.530500 -79.506200   2.136990  -3.096100  -0.866657   0.994601 -14.441500  10.019000  -4.644320   0.219129  40.019200  35.843900 -50.000500 -34.637800   0.002704   0.002021 -12.525000   0.008617   0.002813 -35.495200  -1.781380   2.489090 -29.073100  -0.004395   0.003781 -20.353500  -0.003413   0.003636 -32.012100  -3.700530   5.888340 -48.304200   0.005996  -0.011857 -32.170600   0.004132   0.000331 -28.429900  -4.638010   8.497650 -40.795800   0.001355  -0.012260 -27.170000   0.001571  -0.000660 -35.090600  -6.944590   9.764960 -53.527800  -0.001536  -0.007450 -35.648900  -0.002363   0.001288   7.505480   3.973610   8.763630  70.359200  -7.534840   0.486240   2.089380  -5.334660  18.150800 -17.528000  -1.922400   3.880960 -41.957900  37.036100  73.095000  28.716800   0.003175  -0.001644   9.358390   0.001384  -0.005393  33.330400  -0.194581  -0.296127  27.270800   0.004956  -0.001836  19.089500   0.004037  -0.005699  28.443800  -3.565450  -6.549210  38.115900   0.002925  -0.001949  25.385100   0.003863  -0.003121  28.563200  -3.674290  -6.713870  41.263900   0.005994  -0.003427  27.481700   0.003866  -0.006754  38.115900  -4.738960  -6.011610  57.547300   0.005911  -0.003237  38.326600   0.005852  -0.010780   3.144360   5.384840   0.085868  -0.345114   0.038016   9.714440  -1.765410  -1.846150   1.693310  -0.000000   0.000000   0.000000  -0.573663   2.196540  -3.824030  -2.038840   7.159030 -13.686200   3.776910  -3.748040   4.507040   0.000000   0.000000  -0.000000
  0.379075  89.464500  -1.687900  -1.724540  -4.282760  -1.053460   1.240370   3.932280  -0.309543   2.510960   7.856860  -0.707069  -0.755079   0.289703  -0.001341  -1.240650   0.587061   1.999710  -6.276770   0.724151  10.534400 -79.503300   2.220890  -3.141100  -0.888333   0.955631 -14.473200  10.001800  -4.671370   0.160382  40.015500  35.838800 -50.020200 -34.637400   0.002724   0.002010 -12.524400   0.008614   0.002804 -35.527200  -1.781260   2.489090 -29.099300  -0.004379   0.003767 -20.369500  -0.003394   0.003621 -32.030200  -3.700570   5.883530 -48.331100   0.006014  -0.011856 -32.188500   0.004137   0.000309 -28.427700  -4.645220   8.510880 -40.810200   0.001353  -0.012271 -27.179600   0.001579  -0.000685 -35.084000  -6.957150   9.784340 -53.520400  -0.001547  -0.007443 -35.644600  -0.002379   0.001295   7.510360   3.921250   8.802500  70.347400  -7.587180   0.467558   2.139800  -5.453650  18.261300 -17.603000  -1.702620   4.020800 -41.995800  37.068700  73.155400  28.675200   0.003188  -0.001667   9.337620   0.001397  -0.005377  33.289700  -0.164285  -0.250406  27.237300   0.004957  -0.001791  19.066100   0.004039  -0.005665  28.439500  -3.532380  -6.490200  37.988200   0.002860  -0.001917  25.300100   0.003837  -0.003062  28.564800  -3.638540  -6.648780  41.147700   0.005947  -0.003364  27.404400   0.003865  -0.006698  38.076600  -4.688620  -5.956670  57.480800   0.005911  -0.003167  38.282300   0.005851  -0.010792   3.151600   5.445370   0.089523  -0.343120   0.052182   9.734910  -1.771010  -1.866600   1.688550  -0.000000   0.000000  -0.000000  -0.558508   2.260440  -3.824200  -2.040830   7.155830 -13.679100   3.746810  -3.745160   4.519330  -0.000000   0.000000   0.000000
  0.365004  89.465000  -1.666160  -1.730500  -4.340020  -1.084630   1.245960   3.963740  -0.303420   2.522100   7.919870  -0.695628  -0.697396   0.288816  -0.001309  -1.146000   0.585236   2.037570  -6.280030   0.696784  10.522900 -79.506400   2.295460  -3.191190  -0.904023   0.936382 -14.511300   9.985130  -4.696670   0.124524  40.015000  35.836100 -50.040100 -34.637100   0.002751   0.002007 -12.523400   0.008604   0.002813 -35.549800  -1.781340   2.489160 -29.117900  -0.004361   0.003752 -20.382500  -0.003372   0.003605 -32.037000  -3.700580   5.881520 -48.341200   0.006034  -0.011858 -32.195200   0.004142   0.000286 -28.427000  -4.647350   8.514780 -40.815500   0.001352  -0.012287 -27.183200   0.001589  -0.000715 -35.083000  -6.959360   9.787420 -53.517000  -0.001559  -0.007438 -35.643800  -0.002398   0.001304   7.526070   3.853370   8.833490  70.333000  -7.649250   0.433335   2.242600  -5.613870  18.408500 -17.707000  -1.397830   4.213470 -42.080700  37.105300  73.223300  28.598400   0.003199  -0.001679   9.299210   0.001417  -0.005362  33.226800  -0.112171  -0.171373  27.185700   0.004954  -0.001736  19.030000   0.004037  -0.005624  28.436000  -3.479790  -6.395390  37.843900   0.002797  -0.001886  25.204000   0.003808  -0.003001  28.568000  -3.581120  -6.544030  41.008800   0.005892  -0.003296  27.311900   0.003864  -0.006633  38.019600  -4.608540  -5.867580  57.383600   0.005911  -0.003084  38.217600   0.005851  -0.010807   3.158810   5.498500   0.095317  -0.343175   0.099227   9.755850  -1.777700  -1.903430   1.689180   0.000000   0.000000  -0.000000  -0.541734   2.340980  -3.822840  -2.045500   7.144510 -13.665600   3.723760  -3.745610   4.533180  -0.000000   0.000000   0.000000
